<svg width="44" height="44" viewBox="0 0 44 44" fill="none" xmlns="http://www.w3.org/2000/svg">
<path d="M42.2354 0.09021H2.21412C1.25165 0.09021 0.47406 0.867798 0.47406 1.83027V41.8516C0.47406 42.814 1.25165 43.5916 2.21412 43.5916H42.2354C43.1979 43.5916 43.9755 42.814 43.9755 41.8516V1.83027C43.9755 0.867798 43.1979 0.09021 42.2354 0.09021ZM37.211 12.7872H33.7363C31.0121 12.7872 30.4846 14.0814 30.4846 15.9845V20.177H36.9881L36.1398 26.7403H30.4846V43.5916H23.7038V26.7457H18.0323V20.177H23.7038V15.3375C23.7038 9.72034 27.135 6.65893 32.1485 6.65893C34.552 6.65893 36.6129 6.83837 37.2164 6.91993V12.7872H37.211Z" fill="#4267B2"/>
</svg>
