<svg width="44" height="44" viewBox="0 0 44 44" fill="none" xmlns="http://www.w3.org/2000/svg">
<path d="M10.0299 17.9258C9.57467 17.9249 9.13341 18.0827 8.78207 18.3721C8.43073 18.6616 8.1913 19.0644 8.105 19.5114C8.0187 19.9583 8.09095 20.4213 8.30929 20.8207C8.52763 21.2201 8.87841 21.5309 9.30121 21.6995C9.92655 20.7153 10.7748 19.8235 11.7971 19.046C11.6392 18.7108 11.3892 18.4275 11.0762 18.2291C10.7633 18.0308 10.4004 17.9256 10.0299 17.9258ZM25.7828 27.9801C24.9726 28.6163 23.3739 29.3014 21.7752 29.3014C20.1766 29.3014 18.5725 28.6163 17.7677 27.9801C17.262 27.5831 16.5333 27.6701 16.1364 28.1758C15.7394 28.6815 15.8264 29.4102 16.3321 29.8071C17.7296 30.9164 19.8666 31.6287 21.7752 31.6287C23.6839 31.6287 25.8209 30.9164 27.2238 29.8071C27.7295 29.4102 27.8165 28.6761 27.4196 28.1758C27.2283 27.9331 26.9485 27.7762 26.6417 27.7395C26.3348 27.7028 26.026 27.7893 25.7828 27.9801ZM41.7859 0.09021H1.76459C0.802124 0.09021 0.0245361 0.867798 0.0245361 1.83027V41.8516C0.0245361 42.814 0.802124 43.5916 1.76459 43.5916H41.7859C42.7484 43.5916 43.526 42.814 43.526 41.8516V1.83027C43.526 0.867798 42.7484 0.09021 41.7859 0.09021ZM35.0976 23.4668C35.3477 24.2009 35.4782 24.9676 35.4782 25.756C35.4782 31.1611 29.3445 35.5439 21.7752 35.5439C14.206 35.5439 8.0723 31.1611 8.0723 25.756C8.0723 24.9676 8.2028 24.2009 8.45294 23.4668C7.63117 23.1045 6.95893 22.4707 6.54889 21.6717C6.13885 20.8726 6.01594 19.9569 6.20077 19.0781C6.38559 18.1992 6.86691 17.4106 7.56405 16.8444C8.26119 16.2782 9.13177 15.9689 10.0299 15.9682C11.5035 15.9682 12.7813 16.7784 13.4502 17.9802C15.4186 16.9035 17.8112 16.1966 20.4158 16.0172L23.5914 8.88837C23.8253 8.35548 24.418 8.0836 24.978 8.24673L29.959 9.68771C30.2691 9.11181 30.7626 8.65589 31.3612 8.39217C31.9597 8.12846 32.6292 8.07204 33.2635 8.23186C33.8978 8.39168 34.4606 8.75859 34.8627 9.27446C35.2649 9.79033 35.4834 10.4257 35.4836 11.0798C35.4836 12.7002 34.1677 14.0161 32.5473 14.0161C31.2694 14.0161 30.1819 13.195 29.7795 12.0531L25.3097 10.7644L22.9715 16.0117C25.6414 16.1749 28.0938 16.8872 30.1058 17.9856C30.7746 16.7839 32.0525 15.9737 33.5261 15.9737C35.6903 15.9737 37.4412 17.7246 37.4412 19.8888C37.4358 21.482 36.4733 22.8578 35.0976 23.4668ZM25.6904 23.7985C25.6904 24.3177 25.8966 24.8156 26.2637 25.1827C26.6308 25.5498 27.1288 25.756 27.6479 25.756C28.1671 25.756 28.665 25.5498 29.0321 25.1827C29.3993 24.8156 29.6055 24.3177 29.6055 23.7985C29.6055 23.2793 29.3993 22.7814 29.0321 22.4143C28.665 22.0472 28.1671 21.8409 27.6479 21.8409C27.1288 21.8409 26.6308 22.0472 26.2637 22.4143C25.8966 22.7814 25.6904 23.2793 25.6904 23.7985ZM33.5206 17.9258C33.1501 17.9256 32.7872 18.0308 32.4743 18.2291C32.1613 18.4275 31.9113 18.7108 31.7534 19.046C32.7757 19.8235 33.6239 20.7153 34.2493 21.6995C34.6721 21.5309 35.0229 21.2201 35.2412 20.8207C35.4595 20.4213 35.5318 19.9583 35.4455 19.5114C35.3592 19.0644 35.1198 18.6616 34.7684 18.3721C34.4171 18.0827 33.9758 17.9249 33.5206 17.9258ZM13.945 23.7985C13.945 24.3177 14.1512 24.8156 14.5183 25.1827C14.8855 25.5498 15.3834 25.756 15.9026 25.756C16.4217 25.756 16.9196 25.5498 17.2868 25.1827C17.6539 24.8156 17.8601 24.3177 17.8601 23.7985C17.8601 23.2793 17.6539 22.7814 17.2868 22.4143C16.9196 22.0472 16.4217 21.8409 15.9026 21.8409C15.3834 21.8409 14.8855 22.0472 14.5183 22.4143C14.1512 22.7814 13.945 23.2793 13.945 23.7985Z" fill="#FF5700"/>
</svg>
