<svg width="45" height="44" viewBox="0 0 45 44" fill="none" xmlns="http://www.w3.org/2000/svg">
<path d="M42.5687 0.09021H2.54743C1.58496 0.09021 0.807373 0.867798 0.807373 1.83027V41.8516C0.807373 42.814 1.58496 43.5916 2.54743 43.5916H42.5687C43.5312 43.5916 44.3088 42.814 44.3088 41.8516V1.83027C44.3088 0.867798 43.5312 0.09021 42.5687 0.09021ZM34.2654 15.8432C34.2817 16.0987 34.2817 16.3652 34.2817 16.6262C34.2817 24.6087 28.2024 33.8038 17.0932 33.8038C13.6675 33.8038 10.4919 32.8087 7.81654 31.0958C8.30593 31.1502 8.77357 31.172 9.27384 31.172C12.1014 31.172 14.7006 30.2149 16.7724 28.5945C14.1188 28.5401 11.8894 26.8001 11.1281 24.4075C12.0579 24.5434 12.8953 24.5434 13.8524 24.2988C12.486 24.0212 11.2579 23.2791 10.3767 22.1986C9.49546 21.1182 9.01548 19.7659 9.01827 18.3717V18.2956C9.81761 18.7469 10.7583 19.0242 11.7425 19.0623C10.9152 18.5109 10.2366 17.7638 9.7671 16.8874C9.29757 16.0109 9.05156 15.0321 9.05089 14.0379C9.05089 12.9123 9.34453 11.8845 9.87198 10.9928C11.3886 12.8597 13.281 14.3866 15.4264 15.4743C17.5717 16.562 19.9219 17.186 22.3243 17.3059C21.4705 13.2005 24.5374 9.87803 28.2241 9.87803C29.9642 9.87803 31.5303 10.6067 32.6341 11.7812C33.999 11.5256 35.304 11.0145 36.4677 10.3294C36.0163 11.7268 35.0702 12.9068 33.8141 13.6518C35.0321 13.5213 36.2067 13.1841 37.2942 12.7111C36.4731 13.9182 35.4454 14.9894 34.2654 15.8432Z" fill="#1DA1F2"/>
</svg>
